<svg width="36" height="36" viewBox="0 0 36 36" fill="none" xmlns="http://www.w3.org/2000/svg">
<g clip-path="url(#clip0_18_73)">
<path fill-rule="evenodd" clip-rule="evenodd" d="M26.9155 5.56801L28.8492 3.63427C21.7955 -1.70673 11.7049 -1.1608 5.27208 5.27208C-1.1608 11.7049 -1.70673 21.7955 3.63427 28.8492L5.56801 26.9155C1.27062 20.9384 1.80931 12.5588 7.18408 7.18408C12.5588 1.8093 20.9384 1.27062 26.9155 5.56801ZM30.6846 9.44689L32.6269 7.50462C37.687 14.5386 37.054 24.4018 30.7279 30.7279C24.4018 37.054 14.5386 37.687 7.50462 32.6269L9.44689 30.6846C15.3964 34.7058 23.549 34.083 28.816 28.816C34.083 23.549 34.7058 15.3964 30.6846 9.44689ZM34.5596 3.66L3.96755 34.252L2.05554 32.3401L32.6475 1.74799L34.5596 3.66ZM25.0292 18.7584L18.7583 25.0293C17.7024 26.0852 15.9903 26.0852 14.9343 25.0293L14.5389 24.6338L24.6337 14.539L25.0292 14.9343C26.0851 15.9903 26.0851 17.7024 25.0292 18.7584ZM11.2594 17.5301L17.5302 11.2592C18.5862 10.2033 20.2982 10.2033 21.3542 11.2592L21.7495 11.6547L11.6547 21.7495L11.2594 21.3541C10.2034 20.2982 10.2034 18.5861 11.2594 17.5301Z" fill="white"/>
</g>
<defs>
<clipPath id="clip0_18_73">
<rect width="36" height="36" fill="white"/>
</clipPath>
</defs>
</svg>
